# xmcd CD database file
#
# Track frame offsets:
#	150
#	13030
#	24215
#	36857
#	49902
#	61860
#	75982
#	90095
#	104917
#	119050
#	130655
#	144537
#	156695
#	171720
#	186577
#	196940
#	209940
#	223675
#	236427
#	249072
#	263525
#
# Disc length: 3763 seconds
#
# Revision: 0
# Processed by: cddbd v1.5.1PL0 Copyright (c) Steve Scherf et al.
# Submitted via: CDex 1.51
#
DISCID=310eb115
DTITLE=Django Reinhardt - Nuages Vol 6
DYEAR=1940
DGENRE=Jazz
TTITLE0=Daphne
TTITLE1=Limehouse Blues
TTITLE2=Tears
TTITLE3=At The Jimmy's Bar
TTITLE4=Rythme futur
TTITLE5=Blues
TTITLE6=Swing
TTITLE7=Nuages
TTITLE8=Pour vous (Exactly Like You)
TTITLE9=Fantaisie sur une danse norvegienne
TTITLE10=Vendredi
TTITLE11=Leibesfreud
TTITLE12=Mabel
TTITLE13=Petits mensonges (Little White Lies)
TTITLE14=Les yeux noirs (Dark Eyes)
TTITLE15=SweetSue, Just You
TTITLE16=Swing de Paris
TTITLE17=Oiseaux de iles
TTITLE18=All Of Me
TTITLE19=Stockholm
TTITLE20=Festival Swing
EXTD=YEAR: 1940
EXTT0=
EXTT1=
EXTT2=
EXTT3=
EXTT4=
EXTT5=
EXTT6=
EXTT7=
EXTT8=
EXTT9=
EXTT10=
EXTT11=
EXTT12=
EXTT13=
EXTT14=
EXTT15=
EXTT16=
EXTT17=
EXTT18=
EXTT19=
EXTT20=
PLAYORDER=
